<?xml version="1.0"?>
<svg xmlns="http://www.w3.org/2000/svg" viewBox="0 0 512 512" width="512" height="512"><g id="Outline"><path d="M338.771,167.021,312,140.651V112a24.027,24.027,0,0,0-24-24h-8V32h16V16H200a8,8,0,0,0-5.657,2.343l-16,16,11.314,11.314L203.313,32H232V88h-8a24.027,24.027,0,0,0-24,24v28.651l-26.771,26.37A98.6,98.6,0,0,0,144,236.839V472a24.028,24.028,0,0,0,24,24H344a24.028,24.028,0,0,0,24-24V236.839A98.6,98.6,0,0,0,338.771,167.021ZM248,32h16V88H248Zm-32,80a8.009,8.009,0,0,1,8-8h64a8.009,8.009,0,0,1,8,8v24H216ZM352,472a8.009,8.009,0,0,1-8,8H168a8.009,8.009,0,0,1-8-8V236.839a82.5,82.5,0,0,1,24.457-58.419L211.278,152h89.444l26.821,26.42A82.5,82.5,0,0,1,352,236.839Z"/><path d="M263.074,200H248.926A67.473,67.473,0,0,0,201.3,219.518,58.362,58.362,0,0,0,184,260.839V424a32.036,32.036,0,0,0,32,32h80a32.036,32.036,0,0,0,32-32V260.841a58.367,58.367,0,0,0-17.3-41.323A67.473,67.473,0,0,0,263.074,200ZM312,424a16.019,16.019,0,0,1-16,16H216a16.019,16.019,0,0,1-16-16V260.839a42.256,42.256,0,0,1,12.527-29.922A51.563,51.563,0,0,1,248.926,216h14.148a51.563,51.563,0,0,1,36.4,14.917A42.263,42.263,0,0,1,312,260.841Z"/><path d="M256,240a40,40,0,1,0,40,40A40.045,40.045,0,0,0,256,240Zm0,64a24,24,0,1,1,24-24A24.028,24.028,0,0,1,256,304Z"/><rect x="248" y="336" width="16" height="16"/><rect x="240" y="368" width="32" height="16"/></g></svg>
