<svg id="_x33_0" enable-background="new 0 0 64 64" height="512" viewBox="0 0 64 64" width="512" xmlns="http://www.w3.org/2000/svg"><g><g><g><path d="m18 19c-1.654 0-3-1.346-3-3s1.346-3 3-3 3 1.346 3 3-1.346 3-3 3z" fill="#f0bc5e"/></g></g><g><g><path d="m4 49c-1.654 0-3-1.346-3-3s1.346-3 3-3 3 1.346 3 3-1.346 3-3 3z" fill="#f0bc5e"/></g></g><g><g><path d="m58 57c-1.654 0-3-1.346-3-3s1.346-3 3-3 3 1.346 3 3-1.346 3-3 3z" fill="#f0bc5e"/></g></g><g><g><path d="m46 9c-1.654 0-3-1.346-3-3s1.346-3 3-3 3 1.346 3 3-1.346 3-3 3z" fill="#f0bc5e"/></g></g><g><path d="m59.744 55.356-1.783.906 1.773 3.486-7.286-3.643-.895 1.789 6.211 3.106h-51.528l25.764-12.882 7.553 3.776.895-1.789-7.448-3.723v-39.209l8.592 16.898-4.592 1.148v13.563l13.83 3.457 5.319 10.46 1.783-.906-4.532-8.912 8.357 2.089.485-1.939-23.242-5.812v-2.086l22.876 2.859.248-1.984-23.124-2.891v-2.235l23.124-2.891-.248-1.984-22.876 2.86v-2.086l23.243-5.812-.485-1.939-18.174 4.543-11.584-22.779-12.937 25.441-16.82-4.205-.486 1.94 23.243 5.811v1.086l-22.876-2.859-.248 1.984 23.124 2.891v1.336l-23.243 5.811.485 1.939 10.104-2.526-11.976 23.557h63.26zm-32.744-19.575v-7.563l-5.946-1.486 9.946-19.559v39.209l-26.733 13.366 10.651-20.947z"/><path d="m5 11h2v-4h4v-2h-4v-4h-2v4h-4v2h4z"/><path d="m47 59v-4h4v-2h-4v-4h-2v4h-4v2h4v4z"/><path d="m55 17h2v-2h2v-2h-2v-2h-2v2h-2v2h2z"/><path d="m15 49h2v2h2v-2h2v-2h-2v-2h-2v2h-2z"/></g></g></svg>